<svg width="1369" height="693" viewBox="0 0 1369 693" fill="none" xmlns="http://www.w3.org/2000/svg">
<g style="mix-blend-mode:color-dodge">
<circle cx="832.962" cy="386.962" r="3.96233" fill="url(#paint0_linear)"/>
</g>
<g style="mix-blend-mode:color-dodge">
<circle cx="1157.96" cy="153.962" r="3.96233" fill="url(#paint1_linear)"/>
</g>
<g style="mix-blend-mode:color-dodge">
<circle cx="1021.96" cy="157.962" r="3.96233" fill="url(#paint2_linear)"/>
</g>
<g style="mix-blend-mode:color-dodge">
<circle cx="958.962" cy="99.9623" r="3.96233" fill="url(#paint3_linear)"/>
</g>
<g style="mix-blend-mode:color-dodge">
<circle cx="684.962" cy="53.9623" r="3.96233" fill="url(#paint4_linear)"/>
</g>
<g style="mix-blend-mode:color-dodge">
<circle cx="554.962" cy="3.96233" r="3.96233" fill="url(#paint5_linear)"/>
</g>
<g style="mix-blend-mode:color-dodge">
<circle cx="1219.96" cy="322.962" r="3.96233" fill="url(#paint6_linear)"/>
</g>
<g style="mix-blend-mode:color-dodge">
<circle cx="1291.96" cy="117.962" r="3.96233" fill="url(#paint7_linear)"/>
</g>
<g style="mix-blend-mode:color-dodge">
<circle cx="1100.96" cy="79.9623" r="3.96233" fill="url(#paint8_linear)"/>
</g>
<g style="mix-blend-mode:color-dodge">
<circle cx="582.962" cy="453.962" r="3.96233" fill="url(#paint9_linear)"/>
</g>
<g style="mix-blend-mode:color-dodge">
<circle cx="193.962" cy="410.962" r="3.96233" fill="url(#paint10_linear)"/>
</g>
<g style="mix-blend-mode:color-dodge">
<circle cx="235.962" cy="153.962" r="3.96233" fill="url(#paint11_linear)"/>
</g>
<g style="mix-blend-mode:color-dodge">
<circle cx="20.9623" cy="149.962" r="3.96233" fill="url(#paint12_linear)"/>
</g>
<g style="mix-blend-mode:color-dodge">
<circle cx="293.962" cy="11.9623" r="3.96233" fill="url(#paint13_linear)"/>
</g>
<g style="mix-blend-mode:color-dodge">
<circle cx="3.96233" cy="471.962" r="3.96233" fill="url(#paint14_linear)"/>
</g>
<g style="mix-blend-mode:color-dodge">
<circle cx="371.962" cy="553.962" r="3.96233" fill="url(#paint15_linear)"/>
</g>
<g style="mix-blend-mode:color-dodge">
<circle cx="480.962" cy="679.962" r="3.96233" fill="url(#paint16_linear)"/>
</g>
<g style="mix-blend-mode:color-dodge">
<circle cx="88.9623" cy="688.962" r="3.96233" fill="url(#paint17_linear)"/>
</g>
<g style="mix-blend-mode:color-dodge">
<circle cx="717.962" cy="310.962" r="3.96233" fill="url(#paint18_linear)"/>
</g>
<g style="mix-blend-mode:color-dodge">
<circle cx="500.962" cy="125.962" r="3.96233" fill="url(#paint19_linear)"/>
</g>
<g style="mix-blend-mode:color-dodge">
<circle cx="590.962" cy="599.962" r="3.96233" fill="url(#paint20_linear)"/>
</g>
<g style="mix-blend-mode:color-dodge">
<circle cx="618.962" cy="262.962" r="3.96233" fill="url(#paint21_linear)"/>
</g>
<g style="mix-blend-mode:color-dodge">
<circle cx="1120.96" cy="394.962" r="3.96233" fill="url(#paint22_linear)"/>
</g>
<g style="mix-blend-mode:color-dodge">
<circle cx="992.962" cy="356.962" r="3.96233" fill="url(#paint23_linear)"/>
</g>
<g style="mix-blend-mode:color-dodge">
<circle cx="1166.96" cy="577.962" r="3.96233" fill="url(#paint24_linear)"/>
</g>
<circle cx="1117" cy="240" r="15" fill="url(#paint25_linear)"/>
<circle cx="175" cy="154" r="15" fill="url(#paint26_linear)"/>
<circle cx="433" cy="486" r="15" fill="url(#paint27_linear)"/>
<circle cx="725" cy="103" r="11" fill="url(#paint28_linear)"/>
<circle cx="1248" cy="411" r="11" fill="url(#paint29_linear)"/>
<g style="mix-blend-mode:overlay">
<path d="M735.008 610.933C732.176 613.765 728.116 614.297 725.94 612.121C723.764 609.945 724.296 605.885 727.128 603.053C729.961 600.22 763.121 574.94 763.121 574.94C763.121 574.94 737.841 608.1 735.008 610.933Z" fill="url(#paint30_linear)"/>
</g>
<g style="mix-blend-mode:overlay">
<path d="M844.335 116.656C842.302 118.688 839.389 119.07 837.827 117.508C836.266 115.947 836.648 113.034 838.68 111.001C840.713 108.969 864.508 90.8273 864.508 90.8273C864.508 90.8273 846.367 114.623 844.335 116.656Z" fill="url(#paint31_linear)"/>
</g>
<g style="mix-blend-mode:overlay">
<path d="M815.27 272.015C811.51 275.775 806.12 276.482 803.231 273.593C800.342 270.704 801.048 265.314 804.809 261.554C808.569 257.793 852.593 224.231 852.593 224.231C852.593 224.231 819.03 268.255 815.27 272.015Z" fill="url(#paint32_linear)"/>
</g>
<g style="mix-blend-mode:overlay">
<path d="M1336.27 381.015C1332.51 384.775 1327.12 385.482 1324.23 382.593C1321.34 379.704 1322.05 374.314 1325.81 370.554C1329.57 366.793 1373.59 333.231 1373.59 333.231C1373.59 333.231 1340.03 377.255 1336.27 381.015Z" fill="url(#paint33_linear)"/>
</g>
<defs>
<linearGradient id="paint0_linear" x1="832.962" y1="383" x2="832.962" y2="390.925" gradientUnits="userSpaceOnUse">
<stop stop-color="#D6E80A" stop-opacity="0"/>
<stop offset="1" stop-color="#4ADBD2"/>
</linearGradient>
<linearGradient id="paint1_linear" x1="1157.96" y1="150" x2="1157.96" y2="157.925" gradientUnits="userSpaceOnUse">
<stop stop-color="#D6E80A" stop-opacity="0"/>
<stop offset="1" stop-color="#4ADBD2"/>
</linearGradient>
<linearGradient id="paint2_linear" x1="1021.96" y1="154" x2="1021.96" y2="161.925" gradientUnits="userSpaceOnUse">
<stop stop-color="#D6E80A" stop-opacity="0"/>
<stop offset="1" stop-color="#4ADBD2"/>
</linearGradient>
<linearGradient id="paint3_linear" x1="958.962" y1="96" x2="958.962" y2="103.925" gradientUnits="userSpaceOnUse">
<stop stop-color="#D6E80A" stop-opacity="0"/>
<stop offset="1" stop-color="#4ADBD2"/>
</linearGradient>
<linearGradient id="paint4_linear" x1="684.962" y1="50" x2="684.962" y2="57.9247" gradientUnits="userSpaceOnUse">
<stop stop-color="#D6E80A" stop-opacity="0"/>
<stop offset="1" stop-color="#4ADBD2"/>
</linearGradient>
<linearGradient id="paint5_linear" x1="554.962" y1="0" x2="554.962" y2="7.92467" gradientUnits="userSpaceOnUse">
<stop stop-color="#D6E80A" stop-opacity="0"/>
<stop offset="1" stop-color="#4ADBD2"/>
</linearGradient>
<linearGradient id="paint6_linear" x1="1219.96" y1="319" x2="1219.96" y2="326.925" gradientUnits="userSpaceOnUse">
<stop stop-color="#D6E80A" stop-opacity="0"/>
<stop offset="1" stop-color="#4ADBD2"/>
</linearGradient>
<linearGradient id="paint7_linear" x1="1291.96" y1="114" x2="1291.96" y2="121.925" gradientUnits="userSpaceOnUse">
<stop stop-color="#D6E80A" stop-opacity="0"/>
<stop offset="1" stop-color="#4ADBD2"/>
</linearGradient>
<linearGradient id="paint8_linear" x1="1100.96" y1="76" x2="1100.96" y2="83.9247" gradientUnits="userSpaceOnUse">
<stop stop-color="#D6E80A" stop-opacity="0"/>
<stop offset="1" stop-color="#4ADBD2"/>
</linearGradient>
<linearGradient id="paint9_linear" x1="582.962" y1="450" x2="582.962" y2="457.925" gradientUnits="userSpaceOnUse">
<stop stop-color="#D6E80A" stop-opacity="0"/>
<stop offset="1" stop-color="#4ADBD2"/>
</linearGradient>
<linearGradient id="paint10_linear" x1="193.962" y1="407" x2="193.962" y2="414.925" gradientUnits="userSpaceOnUse">
<stop stop-color="#D6E80A" stop-opacity="0"/>
<stop offset="1" stop-color="#4ADBD2"/>
</linearGradient>
<linearGradient id="paint11_linear" x1="235.962" y1="150" x2="235.962" y2="157.925" gradientUnits="userSpaceOnUse">
<stop stop-color="#D6E80A" stop-opacity="0"/>
<stop offset="1" stop-color="#4ADBD2"/>
</linearGradient>
<linearGradient id="paint12_linear" x1="20.9623" y1="146" x2="20.9623" y2="153.925" gradientUnits="userSpaceOnUse">
<stop stop-color="#D6E80A" stop-opacity="0"/>
<stop offset="1" stop-color="#4ADBD2"/>
</linearGradient>
<linearGradient id="paint13_linear" x1="293.962" y1="8" x2="293.962" y2="15.9247" gradientUnits="userSpaceOnUse">
<stop stop-color="#D6E80A" stop-opacity="0"/>
<stop offset="1" stop-color="#4ADBD2"/>
</linearGradient>
<linearGradient id="paint14_linear" x1="3.96233" y1="468" x2="3.96233" y2="475.925" gradientUnits="userSpaceOnUse">
<stop stop-color="#D6E80A" stop-opacity="0"/>
<stop offset="1" stop-color="#4ADBD2"/>
</linearGradient>
<linearGradient id="paint15_linear" x1="371.962" y1="550" x2="371.962" y2="557.925" gradientUnits="userSpaceOnUse">
<stop stop-color="#D6E80A" stop-opacity="0"/>
<stop offset="1" stop-color="#4ADBD2"/>
</linearGradient>
<linearGradient id="paint16_linear" x1="480.962" y1="676" x2="480.962" y2="683.925" gradientUnits="userSpaceOnUse">
<stop stop-color="#D6E80A" stop-opacity="0"/>
<stop offset="1" stop-color="#4ADBD2"/>
</linearGradient>
<linearGradient id="paint17_linear" x1="88.9623" y1="685" x2="88.9623" y2="692.925" gradientUnits="userSpaceOnUse">
<stop stop-color="#D6E80A" stop-opacity="0"/>
<stop offset="1" stop-color="#4ADBD2"/>
</linearGradient>
<linearGradient id="paint18_linear" x1="717.962" y1="307" x2="717.962" y2="314.925" gradientUnits="userSpaceOnUse">
<stop stop-color="#D6E80A" stop-opacity="0"/>
<stop offset="1" stop-color="#4ADBD2"/>
</linearGradient>
<linearGradient id="paint19_linear" x1="500.962" y1="122" x2="500.962" y2="129.925" gradientUnits="userSpaceOnUse">
<stop stop-color="#D6E80A" stop-opacity="0"/>
<stop offset="1" stop-color="#4ADBD2"/>
</linearGradient>
<linearGradient id="paint20_linear" x1="590.962" y1="596" x2="590.962" y2="603.925" gradientUnits="userSpaceOnUse">
<stop stop-color="#D6E80A" stop-opacity="0"/>
<stop offset="1" stop-color="#4ADBD2"/>
</linearGradient>
<linearGradient id="paint21_linear" x1="618.962" y1="259" x2="618.962" y2="266.925" gradientUnits="userSpaceOnUse">
<stop stop-color="#D6E80A" stop-opacity="0"/>
<stop offset="1" stop-color="#4ADBD2"/>
</linearGradient>
<linearGradient id="paint22_linear" x1="1120.96" y1="391" x2="1120.96" y2="398.925" gradientUnits="userSpaceOnUse">
<stop stop-color="#D6E80A" stop-opacity="0"/>
<stop offset="1" stop-color="#4ADBD2"/>
</linearGradient>
<linearGradient id="paint23_linear" x1="992.962" y1="353" x2="992.962" y2="360.925" gradientUnits="userSpaceOnUse">
<stop stop-color="#D6E80A" stop-opacity="0"/>
<stop offset="1" stop-color="#4ADBD2"/>
</linearGradient>
<linearGradient id="paint24_linear" x1="1166.96" y1="574" x2="1166.96" y2="581.925" gradientUnits="userSpaceOnUse">
<stop stop-color="#D6E80A" stop-opacity="0"/>
<stop offset="1" stop-color="#4ADBD2"/>
</linearGradient>
<linearGradient id="paint25_linear" x1="1117" y1="225" x2="1117" y2="255" gradientUnits="userSpaceOnUse">
<stop stop-color="#3588D3" stop-opacity="0.1"/>
<stop offset="1" stop-color="#9D2CD1"/>
</linearGradient>
<linearGradient id="paint26_linear" x1="175" y1="139" x2="175" y2="169" gradientUnits="userSpaceOnUse">
<stop stop-color="#3588D3" stop-opacity="0.1"/>
<stop offset="1" stop-color="#9D2CD1"/>
</linearGradient>
<linearGradient id="paint27_linear" x1="433" y1="471" x2="433" y2="501" gradientUnits="userSpaceOnUse">
<stop stop-color="#3588D3" stop-opacity="0.1"/>
<stop offset="1" stop-color="#9D2CD1"/>
</linearGradient>
<linearGradient id="paint28_linear" x1="725" y1="92" x2="725" y2="114" gradientUnits="userSpaceOnUse">
<stop stop-color="#3588D3" stop-opacity="0.1"/>
<stop offset="1" stop-color="#9D2CD1"/>
</linearGradient>
<linearGradient id="paint29_linear" x1="1248" y1="400" x2="1248" y2="422" gradientUnits="userSpaceOnUse">
<stop stop-color="#3588D3" stop-opacity="0.1"/>
<stop offset="1" stop-color="#9D2CD1"/>
</linearGradient>
<linearGradient id="paint30_linear" x1="763.121" y1="574.94" x2="725.94" y2="612.121" gradientUnits="userSpaceOnUse">
<stop stop-color="#C0E1FF" stop-opacity="0"/>
<stop offset="1" stop-color="#256FB3"/>
</linearGradient>
<linearGradient id="paint31_linear" x1="864.508" y1="90.8273" x2="837.827" y2="117.508" gradientUnits="userSpaceOnUse">
<stop stop-color="#C0E1FF" stop-opacity="0"/>
<stop offset="1" stop-color="#256FB3"/>
</linearGradient>
<linearGradient id="paint32_linear" x1="852.593" y1="224.231" x2="803.231" y2="273.593" gradientUnits="userSpaceOnUse">
<stop stop-color="#C0E1FF" stop-opacity="0"/>
<stop offset="1" stop-color="#256FB3"/>
</linearGradient>
<linearGradient id="paint33_linear" x1="1373.59" y1="333.231" x2="1324.23" y2="382.593" gradientUnits="userSpaceOnUse">
<stop stop-color="#C0E1FF" stop-opacity="0"/>
<stop offset="1" stop-color="#256FB3"/>
</linearGradient>
</defs>
</svg>
