<svg width="404" height="736" viewBox="0 0 404 736" fill="none" xmlns="http://www.w3.org/2000/svg">
<g style="mix-blend-mode:color-dodge">
<circle cx="320" cy="97" r="3" fill="url(#paint0_linear)"/>
</g>
<g style="mix-blend-mode:color-dodge">
<circle cx="367" cy="40" r="3" fill="url(#paint1_linear)"/>
</g>
<g style="mix-blend-mode:color-dodge">
<circle cx="349" cy="569" r="3" fill="url(#paint2_linear)"/>
</g>
<g style="mix-blend-mode:color-dodge">
<circle cx="195" cy="186" r="3" fill="url(#paint3_linear)"/>
</g>
<g style="mix-blend-mode:color-dodge">
<circle cx="179" cy="6" r="3" fill="url(#paint4_linear)"/>
</g>
<g style="mix-blend-mode:color-dodge">
<circle cx="251" cy="377" r="3" fill="url(#paint5_linear)"/>
</g>
<g style="mix-blend-mode:color-dodge">
<circle cx="130" cy="371" r="3" fill="url(#paint6_linear)"/>
</g>
<g style="mix-blend-mode:color-dodge">
<circle cx="343" cy="166" r="3" fill="url(#paint7_linear)"/>
</g>
<g style="mix-blend-mode:color-dodge">
<circle cx="370" cy="218" r="3" fill="url(#paint8_linear)"/>
</g>
<g style="mix-blend-mode:color-dodge">
<circle cx="306" cy="3" r="3" fill="url(#paint9_linear)"/>
</g>
<g style="mix-blend-mode:color-dodge">
<circle cx="269" cy="541" r="3" fill="url(#paint10_linear)"/>
</g>
<g style="mix-blend-mode:color-dodge">
<circle cx="275" cy="131" r="3" fill="url(#paint11_linear)"/>
</g>
<g style="mix-blend-mode:color-dodge">
<circle cx="91" cy="634" r="3" fill="url(#paint12_linear)"/>
</g>
<g style="mix-blend-mode:color-dodge">
<circle cx="65" cy="710" r="3" fill="url(#paint13_linear)"/>
</g>
<g style="mix-blend-mode:color-dodge">
<circle cx="185" cy="614" r="3" fill="url(#paint14_linear)"/>
</g>
<g style="mix-blend-mode:color-dodge">
<circle cx="306" cy="660" r="3" fill="url(#paint15_linear)"/>
</g>
<g style="mix-blend-mode:color-dodge">
<circle cx="59" cy="16" r="3" fill="url(#paint16_linear)"/>
</g>
<g style="mix-blend-mode:color-dodge">
<circle cx="31" cy="88" r="3" fill="url(#paint17_linear)"/>
</g>
<g style="mix-blend-mode:color-dodge">
<circle cx="173" cy="456" r="3" fill="url(#paint18_linear)"/>
</g>
<g style="mix-blend-mode:color-dodge">
<circle cx="109" cy="144" r="3" fill="url(#paint19_linear)"/>
</g>
<g style="mix-blend-mode:color-dodge">
<circle cx="44" cy="510" r="3" fill="url(#paint20_linear)"/>
</g>
<g style="mix-blend-mode:color-dodge">
<circle cx="48" cy="180" r="3" fill="url(#paint21_linear)"/>
</g>
<g style="mix-blend-mode:color-dodge">
<circle cx="233" cy="678" r="3" fill="url(#paint22_linear)"/>
</g>
<g style="mix-blend-mode:color-dodge">
<circle cx="180" cy="733" r="3" fill="url(#paint23_linear)"/>
</g>
<g style="mix-blend-mode:color-dodge">
<circle cx="314" cy="338" r="3" fill="url(#paint24_linear)"/>
</g>
<g style="mix-blend-mode:color-dodge">
<circle cx="174" cy="69" r="3" fill="url(#paint25_linear)"/>
</g>
<g style="mix-blend-mode:color-dodge">
<circle cx="150" cy="259" r="3" fill="url(#paint26_linear)"/>
</g>
<g style="mix-blend-mode:color-dodge">
<circle cx="44" cy="402" r="3" fill="url(#paint27_linear)"/>
</g>
<g style="mix-blend-mode:color-dodge">
<circle cx="340" cy="477" r="3" fill="url(#paint28_linear)"/>
</g>
<circle cx="43.5" cy="269.5" r="7.5" fill="url(#paint29_linear)"/>
<circle cx="243.5" cy="69.5" r="7.5" fill="url(#paint30_linear)"/>
<circle cx="301.5" cy="629.5" r="7.5" fill="url(#paint31_linear)"/>
<circle cx="122.5" cy="537.5" r="7.5" fill="url(#paint32_linear)"/>
<circle cx="359.5" cy="313.5" r="7.5" fill="url(#paint33_linear)"/>
<g style="mix-blend-mode:overlay">
<path d="M255.893 269.929C251.997 273.825 246.413 274.557 243.419 271.564C240.426 268.571 241.158 262.986 245.054 259.09C248.95 255.194 294.564 220.42 294.564 220.42C294.564 220.42 259.789 266.033 255.893 269.929Z" fill="url(#paint34_linear)"/>
</g>
<g style="mix-blend-mode:overlay">
<path d="M17.8934 344.929C13.9974 348.825 8.41262 349.557 5.41949 346.564C2.42635 343.571 3.15828 337.986 7.0543 334.09C10.9503 330.194 56.5636 295.42 56.5636 295.42C56.5636 295.42 21.7894 341.033 17.8934 344.929Z" fill="url(#paint35_linear)"/>
</g>
<g style="mix-blend-mode:overlay">
<path d="M359.893 509.929C355.997 513.825 350.413 514.557 347.419 511.564C344.426 508.571 345.158 502.986 349.054 499.09C352.95 495.194 398.564 460.42 398.564 460.42C398.564 460.42 363.789 506.033 359.893 509.929Z" fill="url(#paint36_linear)"/>
</g>
<g style="mix-blend-mode:overlay">
<path d="M40.8934 668.929C36.9974 672.825 31.4126 673.557 28.4195 670.564C25.4264 667.571 26.1583 661.986 30.0543 658.09C33.9503 654.194 79.5636 619.42 79.5636 619.42C79.5636 619.42 44.7894 665.033 40.8934 668.929Z" fill="url(#paint37_linear)"/>
</g>
<defs>
<linearGradient id="paint0_linear" x1="320" y1="94" x2="320" y2="100" gradientUnits="userSpaceOnUse">
<stop stop-color="#D6E80A" stop-opacity="0"/>
<stop offset="1" stop-color="#4ADBD2"/>
</linearGradient>
<linearGradient id="paint1_linear" x1="367" y1="37" x2="367" y2="43" gradientUnits="userSpaceOnUse">
<stop stop-color="#D6E80A" stop-opacity="0"/>
<stop offset="1" stop-color="#4ADBD2"/>
</linearGradient>
<linearGradient id="paint2_linear" x1="349" y1="566" x2="349" y2="572" gradientUnits="userSpaceOnUse">
<stop stop-color="#D6E80A" stop-opacity="0"/>
<stop offset="1" stop-color="#4ADBD2"/>
</linearGradient>
<linearGradient id="paint3_linear" x1="195" y1="183" x2="195" y2="189" gradientUnits="userSpaceOnUse">
<stop stop-color="#D6E80A" stop-opacity="0"/>
<stop offset="1" stop-color="#4ADBD2"/>
</linearGradient>
<linearGradient id="paint4_linear" x1="179" y1="3" x2="179" y2="9" gradientUnits="userSpaceOnUse">
<stop stop-color="#D6E80A" stop-opacity="0"/>
<stop offset="1" stop-color="#4ADBD2"/>
</linearGradient>
<linearGradient id="paint5_linear" x1="251" y1="374" x2="251" y2="380" gradientUnits="userSpaceOnUse">
<stop stop-color="#D6E80A" stop-opacity="0"/>
<stop offset="1" stop-color="#4ADBD2"/>
</linearGradient>
<linearGradient id="paint6_linear" x1="130" y1="368" x2="130" y2="374" gradientUnits="userSpaceOnUse">
<stop stop-color="#D6E80A" stop-opacity="0"/>
<stop offset="1" stop-color="#4ADBD2"/>
</linearGradient>
<linearGradient id="paint7_linear" x1="343" y1="163" x2="343" y2="169" gradientUnits="userSpaceOnUse">
<stop stop-color="#D6E80A" stop-opacity="0"/>
<stop offset="1" stop-color="#4ADBD2"/>
</linearGradient>
<linearGradient id="paint8_linear" x1="370" y1="215" x2="370" y2="221" gradientUnits="userSpaceOnUse">
<stop stop-color="#D6E80A" stop-opacity="0"/>
<stop offset="1" stop-color="#4ADBD2"/>
</linearGradient>
<linearGradient id="paint9_linear" x1="306" y1="0" x2="306" y2="6" gradientUnits="userSpaceOnUse">
<stop stop-color="#D6E80A" stop-opacity="0"/>
<stop offset="1" stop-color="#4ADBD2"/>
</linearGradient>
<linearGradient id="paint10_linear" x1="269" y1="538" x2="269" y2="544" gradientUnits="userSpaceOnUse">
<stop stop-color="#D6E80A" stop-opacity="0"/>
<stop offset="1" stop-color="#4ADBD2"/>
</linearGradient>
<linearGradient id="paint11_linear" x1="275" y1="128" x2="275" y2="134" gradientUnits="userSpaceOnUse">
<stop stop-color="#D6E80A" stop-opacity="0"/>
<stop offset="1" stop-color="#4ADBD2"/>
</linearGradient>
<linearGradient id="paint12_linear" x1="91" y1="631" x2="91" y2="637" gradientUnits="userSpaceOnUse">
<stop stop-color="#D6E80A" stop-opacity="0"/>
<stop offset="1" stop-color="#4ADBD2"/>
</linearGradient>
<linearGradient id="paint13_linear" x1="65" y1="707" x2="65" y2="713" gradientUnits="userSpaceOnUse">
<stop stop-color="#D6E80A" stop-opacity="0"/>
<stop offset="1" stop-color="#4ADBD2"/>
</linearGradient>
<linearGradient id="paint14_linear" x1="185" y1="611" x2="185" y2="617" gradientUnits="userSpaceOnUse">
<stop stop-color="#D6E80A" stop-opacity="0"/>
<stop offset="1" stop-color="#4ADBD2"/>
</linearGradient>
<linearGradient id="paint15_linear" x1="306" y1="657" x2="306" y2="663" gradientUnits="userSpaceOnUse">
<stop stop-color="#D6E80A" stop-opacity="0"/>
<stop offset="1" stop-color="#4ADBD2"/>
</linearGradient>
<linearGradient id="paint16_linear" x1="59" y1="13" x2="59" y2="19" gradientUnits="userSpaceOnUse">
<stop stop-color="#D6E80A" stop-opacity="0"/>
<stop offset="1" stop-color="#4ADBD2"/>
</linearGradient>
<linearGradient id="paint17_linear" x1="31" y1="85" x2="31" y2="91" gradientUnits="userSpaceOnUse">
<stop stop-color="#D6E80A" stop-opacity="0"/>
<stop offset="1" stop-color="#4ADBD2"/>
</linearGradient>
<linearGradient id="paint18_linear" x1="173" y1="453" x2="173" y2="459" gradientUnits="userSpaceOnUse">
<stop stop-color="#D6E80A" stop-opacity="0"/>
<stop offset="1" stop-color="#4ADBD2"/>
</linearGradient>
<linearGradient id="paint19_linear" x1="109" y1="141" x2="109" y2="147" gradientUnits="userSpaceOnUse">
<stop stop-color="#D6E80A" stop-opacity="0"/>
<stop offset="1" stop-color="#4ADBD2"/>
</linearGradient>
<linearGradient id="paint20_linear" x1="44" y1="507" x2="44" y2="513" gradientUnits="userSpaceOnUse">
<stop stop-color="#D6E80A" stop-opacity="0"/>
<stop offset="1" stop-color="#4ADBD2"/>
</linearGradient>
<linearGradient id="paint21_linear" x1="48" y1="177" x2="48" y2="183" gradientUnits="userSpaceOnUse">
<stop stop-color="#D6E80A" stop-opacity="0"/>
<stop offset="1" stop-color="#4ADBD2"/>
</linearGradient>
<linearGradient id="paint22_linear" x1="233" y1="675" x2="233" y2="681" gradientUnits="userSpaceOnUse">
<stop stop-color="#D6E80A" stop-opacity="0"/>
<stop offset="1" stop-color="#4ADBD2"/>
</linearGradient>
<linearGradient id="paint23_linear" x1="180" y1="730" x2="180" y2="736" gradientUnits="userSpaceOnUse">
<stop stop-color="#D6E80A" stop-opacity="0"/>
<stop offset="1" stop-color="#4ADBD2"/>
</linearGradient>
<linearGradient id="paint24_linear" x1="314" y1="335" x2="314" y2="341" gradientUnits="userSpaceOnUse">
<stop stop-color="#D6E80A" stop-opacity="0"/>
<stop offset="1" stop-color="#4ADBD2"/>
</linearGradient>
<linearGradient id="paint25_linear" x1="174" y1="66" x2="174" y2="72" gradientUnits="userSpaceOnUse">
<stop stop-color="#D6E80A" stop-opacity="0"/>
<stop offset="1" stop-color="#4ADBD2"/>
</linearGradient>
<linearGradient id="paint26_linear" x1="150" y1="256" x2="150" y2="262" gradientUnits="userSpaceOnUse">
<stop stop-color="#D6E80A" stop-opacity="0"/>
<stop offset="1" stop-color="#4ADBD2"/>
</linearGradient>
<linearGradient id="paint27_linear" x1="44" y1="399" x2="44" y2="405" gradientUnits="userSpaceOnUse">
<stop stop-color="#D6E80A" stop-opacity="0"/>
<stop offset="1" stop-color="#4ADBD2"/>
</linearGradient>
<linearGradient id="paint28_linear" x1="340" y1="474" x2="340" y2="480" gradientUnits="userSpaceOnUse">
<stop stop-color="#D6E80A" stop-opacity="0"/>
<stop offset="1" stop-color="#4ADBD2"/>
</linearGradient>
<linearGradient id="paint29_linear" x1="43.5" y1="262" x2="43.5" y2="277" gradientUnits="userSpaceOnUse">
<stop stop-color="#3588D3" stop-opacity="0.1"/>
<stop offset="1" stop-color="#9D2CD1"/>
</linearGradient>
<linearGradient id="paint30_linear" x1="243.5" y1="62" x2="243.5" y2="77" gradientUnits="userSpaceOnUse">
<stop stop-color="#3588D3" stop-opacity="0.1"/>
<stop offset="1" stop-color="#9D2CD1"/>
</linearGradient>
<linearGradient id="paint31_linear" x1="301.5" y1="622" x2="301.5" y2="637" gradientUnits="userSpaceOnUse">
<stop stop-color="#3588D3" stop-opacity="0.1"/>
<stop offset="1" stop-color="#9D2CD1"/>
</linearGradient>
<linearGradient id="paint32_linear" x1="122.5" y1="530" x2="122.5" y2="545" gradientUnits="userSpaceOnUse">
<stop stop-color="#3588D3" stop-opacity="0.1"/>
<stop offset="1" stop-color="#9D2CD1"/>
</linearGradient>
<linearGradient id="paint33_linear" x1="359.5" y1="306" x2="359.5" y2="321" gradientUnits="userSpaceOnUse">
<stop stop-color="#3588D3" stop-opacity="0.1"/>
<stop offset="1" stop-color="#9D2CD1"/>
</linearGradient>
<linearGradient id="paint34_linear" x1="294.564" y1="220.42" x2="243.419" y2="271.564" gradientUnits="userSpaceOnUse">
<stop stop-color="#C0E1FF" stop-opacity="0"/>
<stop offset="1" stop-color="#256FB3"/>
</linearGradient>
<linearGradient id="paint35_linear" x1="56.5636" y1="295.42" x2="5.41949" y2="346.564" gradientUnits="userSpaceOnUse">
<stop stop-color="#C0E1FF" stop-opacity="0"/>
<stop offset="1" stop-color="#256FB3"/>
</linearGradient>
<linearGradient id="paint36_linear" x1="398.564" y1="460.42" x2="347.419" y2="511.564" gradientUnits="userSpaceOnUse">
<stop stop-color="#C0E1FF" stop-opacity="0"/>
<stop offset="1" stop-color="#256FB3"/>
</linearGradient>
<linearGradient id="paint37_linear" x1="79.5636" y1="619.42" x2="28.4195" y2="670.564" gradientUnits="userSpaceOnUse">
<stop stop-color="#C0E1FF" stop-opacity="0"/>
<stop offset="1" stop-color="#256FB3"/>
</linearGradient>
</defs>
</svg>
