<svg width="1440" height="417" viewBox="0 0 1440 417" fill="none" xmlns="http://www.w3.org/2000/svg">
<path fill-rule="evenodd" clip-rule="evenodd" d="M48 381.785C29.5975 389.969 0 400.118 0 400.118V417H1440V53.5026C1440 53.5026 1312.68 7.40478 1258.5 30.4537C1229.68 42.7171 1250.94 70.957 1278.13 107.045C1302.03 138.784 1330.51 176.594 1333.5 214.944C1342.85 334.782 1261.51 290.175 1162.22 235.718C1091.31 196.831 1011.24 152.92 948.5 160.28C881.598 168.128 830.094 203.597 780.415 237.808C718.276 280.6 658.992 321.426 576 303.773C535.221 295.099 505.135 285.015 478.094 275.951C428.968 259.484 389.89 246.385 315 251.23C238.16 256.2 203.91 281.57 160.816 313.491C132.162 334.716 99.5966 358.838 48 381.785Z" fill="white"/>
<path d="M1214.39 27.8486C1210.35 35.3134 1204.37 28.9665 1196.74 23.8756C1189.12 18.7846 1180.72 17.1876 1184.75 9.72277C1188.79 2.25796 1196.3 5.17435 1203.92 10.2653C1217.69 15.826 1217.2 22.6437 1214.39 27.8486Z" fill="white"/>
</svg>
